<?xml version="1.0" encoding="UTF-8"?>
<svg id="Capa_1" xmlns="http://www.w3.org/2000/svg" xmlns:xlink="http://www.w3.org/1999/xlink" viewBox="0 0 4200 1080">
  <defs>
    <style>
      .cls-1 {
        fill: #37c3f3;
      }

      .cls-2 {
        fill: #3683f2;
      }

      .cls-3 {
        fill: #37b5f3;
      }

      .cls-4 {
        fill: #37ddf4;
      }

      .cls-5 {
        fill: #37c7f3;
      }

      .cls-6 {
        fill: #37c8f3;
      }

      .cls-7 {
        fill: #37e7f4;
      }

      .cls-8 {
        fill: #369df3;
      }

      .cls-9 {
        fill: #3681f2;
      }

      .cls-10 {
        fill: #36a0f3;
      }

      .cls-11 {
        fill: #37cef4;
      }

      .cls-12 {
        fill: #37c0f3;
      }

      .cls-13 {
        fill: #37d2f4;
      }

      .cls-14 {
        fill: #36a2f3;
      }

      .cls-15 {
        fill: #37bcf3;
      }

      .cls-16 {
        fill: #37cbf3;
      }

      .cls-17 {
        fill: #37daf4;
      }

      .cls-18 {
        fill: #36a7f3;
      }

      .cls-19 {
        fill: #3693f2;
      }

      .cls-20 {
        fill: #36adf3;
      }

      .cls-21 {
        fill: url(#Degradado_sin_nombre_9-2);
      }

      .cls-22 {
        fill: #37d5f4;
      }

      .cls-23 {
        fill: #fff;
      }

      .cls-24 {
        fill: #37cff4;
      }

      .cls-25 {
        fill: #3699f2;
      }

      .cls-26 {
        fill: #37c9f3;
      }

      .cls-27 {
        fill: #3697f2;
      }

      .cls-28 {
        fill: #3690f2;
      }

      .cls-29 {
        fill: #37dff4;
      }

      .cls-30 {
        fill: #3695f2;
      }

      .cls-31 {
        fill: #37e3f4;
      }

      .cls-32 {
        fill: none;
      }

      .cls-33 {
        fill: #37bbf3;
      }

      .cls-34 {
        fill: #369cf3;
      }

      .cls-35 {
        fill: #368ef2;
      }

      .cls-36 {
        fill: #37d0f4;
      }

      .cls-37 {
        fill: #37b6f3;
      }

      .cls-38 {
        fill: #37cdf3;
      }

      .cls-39 {
        fill: #37caf3;
      }

      .cls-40 {
        fill: #3692f2;
      }

      .cls-41 {
        fill: #37d1f4;
      }

      .cls-42 {
        fill: #3680f2;
      }

      .cls-43 {
        fill: url(#Degradado_sin_nombre_9-4);
      }

      .cls-44 {
        fill: url(#Degradado_sin_nombre_9-3);
      }

      .cls-45 {
        fill: #36abf3;
      }

      .cls-46 {
        fill: #369ff3;
      }

      .cls-47 {
        fill: #36a3f3;
      }

      .cls-48 {
        fill: #36b1f3;
      }

      .cls-49 {
        fill: #368cf2;
      }

      .cls-50 {
        fill: #3689f2;
      }

      .cls-51 {
        fill: #36b0f3;
      }

      .cls-52 {
        fill: #37dcf4;
      }

      .cls-53 {
        fill: #37d3f4;
      }

      .cls-54 {
        fill: #3698f2;
      }

      .cls-55 {
        fill: #37baf3;
      }

      .cls-56 {
        fill: #37ccf3;
      }

      .cls-57 {
        fill: #36b2f3;
      }

      .cls-58 {
        fill: #37e6f4;
      }

      .cls-59 {
        fill: url(#Degradado_sin_nombre_9);
      }

      .cls-60 {
        fill: #37bff3;
      }

      .cls-61 {
        fill: #36a4f3;
      }

      .cls-62 {
        fill: #37c2f3;
      }

      .cls-63 {
        fill: #368af2;
      }

      .cls-64 {
        fill: #37bdf3;
      }

      .cls-65 {
        fill: #368bf2;
      }

      .cls-66 {
        fill: #36a5f3;
      }

      .cls-67 {
        fill: #37def4;
      }

      .cls-68 {
        fill: #36aef3;
      }

      .cls-69 {
        fill: #37d7f4;
      }

      .cls-70 {
        fill: #3696f2;
      }

      .cls-71 {
        fill: #37e2f4;
      }

      .cls-72 {
        fill: #37e4f4;
      }

      .cls-73 {
        fill: #3684f2;
      }

      .cls-74 {
        fill: #999;
      }

      .cls-75 {
        fill: #37b4f3;
      }

      .cls-76 {
        fill: #37b8f3;
      }

      .cls-77 {
        fill: #37b9f3;
      }

      .cls-78 {
        fill: #36b3f3;
      }

      .cls-79 {
        fill: #37c6f3;
      }

      .cls-80 {
        fill: #3685f2;
      }

      .cls-81 {
        fill: #368df2;
      }

      .cls-82 {
        fill: #37e0f4;
      }

      .cls-83 {
        fill: #37c1f3;
      }

      .cls-84 {
        fill: #36aff3;
      }

      .cls-85 {
        fill: #37e5f4;
      }

      .cls-86 {
        fill: #36aaf3;
      }

      .cls-87 {
        fill: #3686f2;
      }

      .cls-88 {
        fill: #36a9f3;
      }

      .cls-89 {
        fill: #36a1f3;
      }

      .cls-90 {
        fill: #3682f2;
      }

      .cls-91 {
        fill: #36a8f3;
      }

      .cls-92 {
        fill: #37d6f4;
      }

      .cls-93 {
        fill: #3687f2;
      }

      .cls-94 {
        fill: #37d9f4;
      }

      .cls-95 {
        fill: #3694f2;
      }

      .cls-96 {
        fill: #37d4f4;
      }

      .cls-97 {
        fill: #36acf3;
      }

      .cls-98 {
        fill: #368ff2;
      }

      .cls-99 {
        fill: #369bf3;
      }

      .cls-100 {
        clip-path: url(#clippath);
      }

      .cls-101 {
        fill: #37dbf4;
      }

      .cls-102 {
        fill: #37c4f3;
      }

      .cls-103 {
        fill: #369ef3;
      }

      .cls-104 {
        fill: #37e1f4;
      }

      .cls-105 {
        fill: #369af2;
      }

      .cls-106 {
        fill: #37d8f4;
      }

      .cls-107 {
        fill: #37b7f3;
      }

      .cls-108 {
        fill: #37bef3;
      }

      .cls-109 {
        fill: #3688f2;
      }

      .cls-110 {
        fill: #36a6f3;
      }
    </style>
    <clipPath id="clippath">
      <circle class="cls-32" cx="579.91" cy="539.79" r="315.32"/>
    </clipPath>
    <linearGradient id="Degradado_sin_nombre_9" data-name="Degradado sin nombre 9" x1="262.32" y1="834.65" x2="853.78" y2="287.09" gradientUnits="userSpaceOnUse">
      <stop offset="0" stop-color="#37e7f4"/>
      <stop offset=".21" stop-color="#36d6f3"/>
      <stop offset=".62" stop-color="#36acf2"/>
      <stop offset="1" stop-color="#3680f2"/>
    </linearGradient>
    <linearGradient id="Degradado_sin_nombre_9-2" data-name="Degradado sin nombre 9" x1="559.38" y1="642.57" x2="892.88" y2="642.57" xlink:href="#Degradado_sin_nombre_9"/>
    <linearGradient id="Degradado_sin_nombre_9-3" data-name="Degradado sin nombre 9" x1="3556.75" y1="405.49" x2="4024.82" y2="405.49" xlink:href="#Degradado_sin_nombre_9"/>
    <linearGradient id="Degradado_sin_nombre_9-4" data-name="Degradado sin nombre 9" x1="3220.97" y1="405.16" x2="3503.27" y2="405.16" xlink:href="#Degradado_sin_nombre_9"/>
  </defs>
  <g id="Capa_2">
    <g>
      <g class="cls-100">
        <polygon class="cls-7" points="895.23 438.88 717.34 224.47 895.23 224.47 895.23 438.88"/>
        <polygon class="cls-7" points="895.23 448.47 709.38 224.47 717.34 224.47 895.23 438.88 895.23 448.47"/>
        <polygon class="cls-58" points="895.23 458.06 701.43 224.47 709.38 224.47 895.23 448.47 895.23 458.06"/>
        <polygon class="cls-85" points="895.23 467.65 693.47 224.47 701.43 224.47 895.23 458.06 895.23 467.65"/>
        <polygon class="cls-72" points="895.23 477.24 685.52 224.47 693.47 224.47 895.23 467.65 895.23 477.24"/>
        <polygon class="cls-31" points="895.23 486.83 677.56 224.47 685.52 224.47 895.23 477.24 895.23 486.83"/>
        <polygon class="cls-71" points="895.23 496.42 669.61 224.47 677.56 224.47 895.23 486.83 895.23 496.42"/>
        <polygon class="cls-104" points="895.23 506.01 661.65 224.47 669.61 224.47 895.23 496.42 895.23 506.01"/>
        <polygon class="cls-82" points="895.23 515.6 653.69 224.47 661.65 224.47 895.23 506.01 895.23 515.6"/>
        <polygon class="cls-29" points="895.23 525.19 645.74 224.47 653.69 224.47 895.23 515.6 895.23 525.19"/>
        <polygon class="cls-67" points="895.23 534.78 637.78 224.47 645.74 224.47 895.23 525.19 895.23 534.78"/>
        <polygon class="cls-4" points="895.23 544.36 629.83 224.47 637.78 224.47 895.23 534.78 895.23 544.36"/>
        <polygon class="cls-52" points="895.23 553.95 621.87 224.47 629.83 224.47 895.23 544.36 895.23 553.95"/>
        <polygon class="cls-101" points="895.23 563.54 613.91 224.47 621.87 224.47 895.23 553.95 895.23 563.54"/>
        <polygon class="cls-17" points="895.23 573.13 605.96 224.47 613.91 224.47 895.23 563.54 895.23 573.13"/>
        <polygon class="cls-94" points="895.23 582.72 598 224.47 605.96 224.47 895.23 573.13 895.23 582.72"/>
        <polygon class="cls-106" points="895.23 592.31 590.05 224.47 598 224.47 895.23 582.72 895.23 592.31"/>
        <polygon class="cls-69" points="895.23 601.9 582.09 224.47 590.05 224.47 895.23 592.31 895.23 601.9"/>
        <polygon class="cls-69" points="895.23 611.49 574.14 224.47 582.09 224.47 895.23 601.9 895.23 611.49"/>
        <polygon class="cls-92" points="895.23 621.08 566.18 224.47 574.14 224.47 895.23 611.49 895.23 621.08"/>
        <polygon class="cls-22" points="895.23 630.67 558.22 224.47 566.18 224.47 895.23 621.08 895.23 630.67"/>
        <polygon class="cls-96" points="895.23 640.26 550.27 224.47 558.22 224.47 895.23 630.67 895.23 640.26"/>
        <polygon class="cls-53" points="895.23 649.85 542.31 224.47 550.27 224.47 895.23 640.26 895.23 649.85"/>
        <polygon class="cls-13" points="895.23 659.44 534.36 224.47 542.31 224.47 895.23 649.85 895.23 659.44"/>
        <polygon class="cls-41" points="895.23 669.02 526.4 224.47 534.36 224.47 895.23 659.44 895.23 669.02"/>
        <polygon class="cls-36" points="895.23 678.61 518.45 224.47 526.4 224.47 895.23 669.02 895.23 678.61"/>
        <polygon class="cls-24" points="895.23 688.2 510.49 224.47 518.45 224.47 895.23 678.61 895.23 688.2"/>
        <polygon class="cls-11" points="895.23 697.79 502.53 224.47 510.49 224.47 895.23 688.2 895.23 697.79"/>
        <polygon class="cls-38" points="895.23 707.38 494.58 224.47 502.53 224.47 895.23 697.79 895.23 707.38"/>
        <polygon class="cls-56" points="895.23 716.97 486.62 224.47 494.58 224.47 895.23 707.38 895.23 716.97"/>
        <polygon class="cls-16" points="895.23 726.56 478.67 224.47 486.62 224.47 895.23 716.97 895.23 726.56"/>
        <polygon class="cls-39" points="895.23 736.15 470.71 224.47 478.67 224.47 895.23 726.56 895.23 736.15"/>
        <polygon class="cls-26" points="895.23 745.74 462.76 224.47 470.71 224.47 895.23 736.15 895.23 745.74"/>
        <polygon class="cls-6" points="895.23 755.33 454.8 224.47 462.76 224.47 895.23 745.74 895.23 755.33"/>
        <polygon class="cls-5" points="895.23 764.92 446.84 224.47 454.8 224.47 895.23 755.33 895.23 764.92"/>
        <polygon class="cls-79" points="895.23 774.51 438.89 224.47 446.84 224.47 895.23 764.92 895.23 774.51"/>
        <polygon class="cls-102" points="895.23 783.56 894.96 783.78 430.93 224.47 438.89 224.47 895.23 774.51 895.23 783.56"/>
        <polygon class="cls-1" points="894.96 783.78 890.25 787.69 422.98 224.47 430.93 224.47 894.96 783.78"/>
        <polygon class="cls-62" points="890.25 787.69 885.54 791.6 415.02 224.47 422.98 224.47 890.25 787.69"/>
        <polygon class="cls-83" points="885.54 791.6 880.83 795.51 407.07 224.47 415.02 224.47 885.54 791.6"/>
        <polygon class="cls-12" points="880.83 795.51 876.12 799.42 399.11 224.47 407.07 224.47 880.83 795.51"/>
        <polygon class="cls-60" points="876.12 799.42 871.4 803.32 391.15 224.47 399.11 224.47 876.12 799.42"/>
        <polygon class="cls-108" points="871.4 803.32 866.69 807.23 383.2 224.47 391.15 224.47 871.4 803.32"/>
        <polygon class="cls-64" points="866.69 807.23 861.98 811.14 375.24 224.47 383.2 224.47 866.69 807.23"/>
        <polygon class="cls-15" points="861.98 811.14 857.27 815.05 367.29 224.47 375.24 224.47 861.98 811.14"/>
        <polygon class="cls-33" points="857.27 815.05 852.55 818.96 359.33 224.47 367.29 224.47 857.27 815.05"/>
        <polygon class="cls-55" points="852.55 818.96 847.84 822.87 351.37 224.47 359.33 224.47 852.55 818.96"/>
        <polygon class="cls-77" points="847.84 822.87 843.13 826.78 346.44 228.11 350.83 224.47 351.37 224.47 847.84 822.87"/>
        <rect class="cls-76" x="589.37" y="140.46" width="6.12" height="777.88" transform="translate(-201.54 500.24) rotate(-39.68)"/>
        <rect class="cls-107" x="584.66" y="144.37" width="6.12" height="777.88" transform="translate(-205.12 498.13) rotate(-39.68)"/>
        <rect class="cls-37" x="579.94" y="148.28" width="6.12" height="777.88" transform="translate(-208.71 496.03) rotate(-39.68)"/>
        <rect class="cls-3" x="575.23" y="152.19" width="6.12" height="777.88" transform="translate(-212.29 493.92) rotate(-39.68)"/>
        <rect class="cls-75" x="570.52" y="156.1" width="6.12" height="777.88" transform="translate(-215.87 491.81) rotate(-39.68)"/>
        <rect class="cls-78" x="565.81" y="160.01" width="6.12" height="777.88" transform="translate(-219.45 489.7) rotate(-39.68)"/>
        <rect class="cls-57" x="561.09" y="163.92" width="6.12" height="777.88" transform="translate(-223.03 487.59) rotate(-39.68)"/>
        <polygon class="cls-48" points="810.15 854.15 808.99 855.11 802.98 855.11 308.74 259.39 313.46 255.48 810.15 854.15"/>
        <polygon class="cls-51" points="795.03 855.11 304.03 263.3 308.74 259.39 802.98 855.11 795.03 855.11"/>
        <polygon class="cls-84" points="787.07 855.11 299.32 267.21 304.03 263.3 795.03 855.11 787.07 855.11"/>
        <polygon class="cls-68" points="779.12 855.11 294.61 271.12 299.32 267.21 787.07 855.11 779.12 855.11"/>
        <polygon class="cls-20" points="771.16 855.11 289.89 275.03 294.61 271.12 779.12 855.11 771.16 855.11"/>
        <polygon class="cls-97" points="763.21 855.11 285.18 278.94 289.89 275.03 771.16 855.11 763.21 855.11"/>
        <polygon class="cls-45" points="755.25 855.11 280.47 282.85 285.18 278.94 763.21 855.11 755.25 855.11"/>
        <polygon class="cls-86" points="747.29 855.11 275.76 286.76 280.47 282.85 755.25 855.11 747.29 855.11"/>
        <polygon class="cls-88" points="739.34 855.11 271.05 290.67 275.76 286.76 747.29 855.11 739.34 855.11"/>
        <polygon class="cls-91" points="731.38 855.11 266.33 294.58 271.05 290.67 739.34 855.11 731.38 855.11"/>
        <polygon class="cls-18" points="723.43 855.11 264.59 302.07 264.59 296.02 266.33 294.58 731.38 855.11 723.43 855.11"/>
        <polygon class="cls-110" points="715.47 855.11 264.59 311.66 264.59 302.07 723.43 855.11 715.47 855.11"/>
        <polygon class="cls-66" points="707.52 855.11 264.59 321.24 264.59 311.66 715.47 855.11 707.52 855.11"/>
        <polygon class="cls-61" points="699.56 855.11 264.59 330.83 264.59 321.24 707.52 855.11 699.56 855.11"/>
        <polygon class="cls-47" points="691.6 855.11 264.59 340.42 264.59 330.83 699.56 855.11 691.6 855.11"/>
        <polygon class="cls-14" points="683.65 855.11 264.59 350.01 264.59 340.42 691.6 855.11 683.65 855.11"/>
        <polygon class="cls-89" points="675.69 855.11 264.59 359.6 264.59 350.01 683.65 855.11 675.69 855.11"/>
        <polygon class="cls-10" points="667.74 855.11 264.59 369.19 264.59 359.6 675.69 855.11 667.74 855.11"/>
        <polygon class="cls-46" points="659.78 855.11 264.59 378.78 264.59 369.19 667.74 855.11 659.78 855.11"/>
        <polygon class="cls-103" points="651.83 855.11 264.59 388.37 264.59 378.78 659.78 855.11 651.83 855.11"/>
        <polygon class="cls-8" points="643.87 855.11 264.59 397.96 264.59 388.37 651.83 855.11 643.87 855.11"/>
        <polygon class="cls-34" points="635.91 855.11 264.59 407.55 264.59 397.96 643.87 855.11 635.91 855.11"/>
        <polygon class="cls-99" points="627.96 855.11 264.59 417.14 264.59 407.55 635.91 855.11 627.96 855.11"/>
        <polygon class="cls-105" points="620 855.11 264.59 426.73 264.59 417.14 627.96 855.11 620 855.11"/>
        <polygon class="cls-25" points="612.05 855.11 264.59 436.31 264.59 426.73 620 855.11 612.05 855.11"/>
        <polygon class="cls-54" points="604.09 855.11 264.59 445.9 264.59 436.31 612.05 855.11 604.09 855.11"/>
        <polygon class="cls-27" points="596.13 855.11 264.59 455.49 264.59 445.9 604.09 855.11 596.13 855.11"/>
        <polygon class="cls-70" points="588.18 855.11 264.59 465.08 264.59 455.49 596.13 855.11 588.18 855.11"/>
        <polygon class="cls-30" points="580.22 855.11 264.59 474.67 264.59 465.08 588.18 855.11 580.22 855.11"/>
        <polygon class="cls-95" points="572.27 855.11 264.59 484.26 264.59 474.67 580.22 855.11 572.27 855.11"/>
        <polygon class="cls-19" points="564.31 855.11 264.59 493.85 264.59 484.26 572.27 855.11 564.31 855.11"/>
        <polygon class="cls-40" points="556.36 855.11 264.59 503.44 264.59 493.85 564.31 855.11 556.36 855.11"/>
        <polygon class="cls-28" points="548.4 855.11 264.59 513.03 264.59 503.44 556.36 855.11 548.4 855.11"/>
        <polygon class="cls-98" points="540.44 855.11 264.59 522.62 264.59 513.03 548.4 855.11 540.44 855.11"/>
        <polygon class="cls-35" points="532.49 855.11 264.59 532.21 264.59 522.62 540.44 855.11 532.49 855.11"/>
        <polygon class="cls-81" points="524.53 855.11 264.59 541.8 264.59 532.21 532.49 855.11 524.53 855.11"/>
        <polygon class="cls-49" points="516.58 855.11 264.59 551.39 264.59 541.8 524.53 855.11 516.58 855.11"/>
        <polygon class="cls-65" points="508.62 855.11 264.59 560.97 264.59 551.39 516.58 855.11 508.62 855.11"/>
        <polygon class="cls-63" points="500.67 855.11 264.59 570.56 264.59 560.97 508.62 855.11 500.67 855.11"/>
        <polygon class="cls-50" points="492.71 855.11 264.59 580.15 264.59 570.56 500.67 855.11 492.71 855.11"/>
        <polygon class="cls-109" points="484.75 855.11 264.59 589.74 264.59 580.15 492.71 855.11 484.75 855.11"/>
        <polygon class="cls-93" points="476.8 855.11 264.59 599.33 264.59 589.74 484.75 855.11 476.8 855.11"/>
        <polygon class="cls-87" points="468.84 855.11 264.59 608.92 264.59 599.33 476.8 855.11 468.84 855.11"/>
        <polygon class="cls-80" points="460.89 855.11 264.59 618.51 264.59 608.92 468.84 855.11 460.89 855.11"/>
        <polygon class="cls-73" points="452.93 855.11 264.59 628.1 264.59 618.51 460.89 855.11 452.93 855.11"/>
        <polygon class="cls-2" points="444.98 855.11 264.59 637.69 264.59 628.1 452.93 855.11 444.98 855.11"/>
        <polygon class="cls-90" points="437.02 855.11 264.59 647.28 264.59 637.69 444.98 855.11 437.02 855.11"/>
        <polygon class="cls-9" points="429.06 855.11 264.59 656.87 264.59 647.28 437.02 855.11 429.06 855.11"/>
        <polygon class="cls-42" points="421.11 855.11 264.59 666.46 264.59 656.87 429.06 855.11 421.11 855.11"/>
        <polygon class="cls-42" points="264.59 666.46 421.11 855.11 264.59 855.11 264.59 666.46"/>
      </g>
      <path class="cls-59" d="M772.77,137h-384.34c-116.44,0-210.83,94.39-210.83,210.83v384.34c0,116.44,94.39,210.83,210.83,210.83h384.34c116.44,0,210.83-94.39,210.83-210.83v-384.34c0-116.44-94.39-210.83-210.83-210.83Z"/>
      <path class="cls-23" d="M318.27,697.1c-5.61,0-11.04-3-13.89-8.27-21.77-40.15-34.1-82.58-36.64-126.11-.51-8.71,6.13-16.18,14.83-16.68,8.68-.48,16.18,6.13,16.68,14.83,2.28,38.88,13.33,76.87,32.88,112.92,4.16,7.66,1.31,17.24-6.35,21.39-2.39,1.3-4.97,1.92-7.5,1.92Z"/>
      <path class="cls-23" d="M877.41,586.29c-.47,0-.95-.02-1.43-.06-8.67-.78-15.09-8.45-14.31-17.14,1.08-11.98,2.14-26.98,2-30.31l-.33-9.6c-.15-5.39-.28-10.86-.71-15.89-9.03-107.05-80.13-200.22-181.12-237.34-3.04-1.12-6.11-2.18-9.2-3.19-8.28-2.71-12.79-11.63-10.07-19.92,2.71-8.27,11.6-12.83,19.92-10.07,3.43,1.12,6.86,2.31,10.25,3.55,112.45,41.33,191.62,145.08,201.68,264.32.47,5.59.64,11.67.8,17.67l.3,9.05c.32,6.98-1.52,28.21-2.08,34.55-.74,8.2-7.62,14.37-15.71,14.37Z"/>
      <path class="cls-23" d="M291.54,483.59c-1.21,0-2.42-.14-3.64-.43-8.49-2-13.74-10.51-11.74-18.99,31.39-132.98,148.64-230.77,285.13-237.81,8.61-.35,16.13,6.25,16.58,14.95.45,8.71-6.25,16.13-14.95,16.58-122.56,6.31-227.85,94.12-256.03,213.52-1.71,7.27-8.2,12.17-15.35,12.17Z"/>
      <path class="cls-23" d="M346.8,606.84c-7.03,0-13.28-4.99-14.63-12.15-2.93-15.56-4.42-31.55-4.42-47.51,0-88.32,44.72-169.11,119.61-216.12,7.01-4.38,16.18-2.28,20.55,4.7,4.38,6.97,2.28,16.17-4.7,20.54-66.14,41.52-105.64,112.88-105.64,190.88,0,14.11,1.31,28.24,3.9,42,1.52,8.08-3.8,15.89-11.89,17.41-.93.17-1.86.26-2.77.26Z"/>
      <path class="cls-23" d="M722.31,366.67c-3.01,0-6.04-.91-8.67-2.78-38.32-27.42-83.58-41.91-130.88-41.91-17.58,0-35.08,2.03-52.01,6.04-8.05,1.88-16.06-3.07-17.94-11.07-1.89-8.02,3.07-16.05,11.07-17.94,19.18-4.54,38.99-6.84,58.88-6.84,53.56,0,104.81,16.42,148.23,47.48,6.7,4.8,8.24,14.1,3.45,20.8-2.91,4.07-7.49,6.23-12.13,6.23Z"/>
      <path class="cls-23" d="M402.29,563.65c-7.75,0-14.03-6.28-14.03-14.03,0-107.15,87.16-194.31,194.31-194.31,7.75,0,14.03,6.28,14.03,14.03s-6.28,14.03-14.03,14.03c-91.67,0-166.25,74.58-166.25,166.25,0,7.75-6.28,14.03-14.03,14.03Z"/>
      <path class="cls-23" d="M474.18,511.49c-1.85,0-3.73-.39-5.51-1.22-6.59-3.04-9.47-10.86-6.42-17.45,22.53-48.78,67.62-79.08,117.66-79.08,28.88,0,54.4,8.62,78.02,26.36,5.81,4.36,6.99,12.61,2.62,18.41-4.35,5.82-12.6,7-18.41,2.62-19.17-14.39-38.94-21.08-62.23-21.08-40.27,0-75.32,23.85-93.79,63.8-2.22,4.81-6.98,7.64-11.95,7.64Z"/>
      <path class="cls-23" d="M361.03,756.2c-1.67,0-3.36-.28-5.02-.87-7.75-2.77-11.79-11.3-9.02-19.05,8.18-22.87,12.28-34.36,2.47-88.43-1.46-8.1,3.9-15.86,12.01-17.33,8.07-1.51,15.86,3.9,17.33,12.01,10.27,56.6,7.13,73.41-3.73,103.8-2.18,6.1-7.91,9.89-14.04,9.89Z"/>
      <path class="cls-23" d="M414.59,803.44c-1.64,0-3.31-.29-4.93-.9-7.25-2.72-10.93-10.82-8.2-18.07,24.23-64.53,15.14-136.62,3.12-169.33-2.67-7.27,1.05-15.34,8.33-18.01,7.24-2.66,15.34,1.05,18.01,8.33,11.59,31.53,25.84,111.58-3.19,188.88-2.12,5.63-7.46,9.1-13.14,9.1Z"/>
      <path class="cls-23" d="M492.65,705.42c-.37,0-.75-.02-1.11-.04-7.24-.61-12.62-6.97-12.01-14.21,2.3-27.45-2.91-42.81-9.52-62.25-5.32-15.64-11.34-33.35-14.28-59.82-.8-7.22,4.41-13.72,11.63-14.52,7.09-.74,13.72,4.4,14.52,11.63,2.61,23.61,7.91,39.19,13.03,54.26,6.99,20.56,13.59,39.98,10.83,72.9-.58,6.87-6.33,12.06-13.09,12.06Z"/>
      <path class="cls-23" d="M468.79,829.17c-2.24,0-4.51-.57-6.59-1.79-6.28-3.65-8.41-11.7-4.77-17.97.18-.31,18.09-31.5,17.97-57.44-.03-7.26,5.82-13.18,13.09-13.21h.06c7.24,0,13.12,5.85,13.15,13.09.16,33.17-20.65,69.28-21.54,70.79-2.44,4.2-6.84,6.53-11.37,6.53Z"/>
      <path class="cls-23" d="M561.63,749.15c-.59,0-1.19-.04-1.79-.13-6.71-.98-11.36-7.22-10.38-13.92,5.03-34.36,2.72-67.75-6.84-99.27-1.97-6.48,1.7-13.34,8.19-15.31,6.47-1.95,13.35,1.7,15.31,8.19,10.62,34.99,13.2,71.98,7.65,109.94-.9,6.11-6.14,10.51-12.13,10.51Z"/>
      <path class="cls-23" d="M530.68,845.93c-1.32,0-2.65-.21-3.97-.67-6.41-2.19-9.83-9.17-7.64-15.59.07-.21,6.85-20.18,10.72-42.38,1.16-6.69,7.54-11.18,14.2-9.99,6.68,1.16,11.15,7.52,9.99,14.2-4.2,24.18-11.37,45.23-11.68,46.12-1.75,5.1-6.51,8.3-11.61,8.3Z"/>
      <g>
        <path class="cls-32" d="M589.84,770.84c-1.38,5.21.55,8.76,3.48,11.17,2.53-9.87,4.93-20.39,6.93-31.01-6.26,5.71-8.53,12.74-10.41,19.84Z"/>
        <path class="cls-32" d="M598.42,525.22c-17.17-14.93-31.86-4.9-35.45,0-4.34,5.92-6.44,20.9,3.73,30.6,1.93,1.85,16.05,15.8,34.95,34.5,5.55-6.12,12.86-9.01,18.06-11.07,2.19-.86,5.51-2.18,6.32-2.96,1-2.16,2.54-3.84,4.37-5.01-2.06-3.08-2.73-7.04-1.44-10.82.45-1.32.85-2.65,1.19-4-13.83-14.12-26-26.25-31.73-31.23Z"/>
        <path class="cls-23" d="M826.93,483.61c-8.18-35.62-23.03-67.87-43.75-94.16-5.1-6.46-14.46-7.58-20.94-2.47-6.47,5.1-7.57,14.46-2.47,20.94,16.76,21.27,29.13,47.2,36.56,75.97,5.54-2.09,11.46-3.08,16.48-3.08s9.92.96,14.13,2.81Z"/>
        <path class="cls-23" d="M772.45,509.48c-11.88-53.36-45.98-100.11-94.79-127.47-6.77-3.79-15.31-1.37-19.1,5.38-3.79,6.76-1.38,15.31,5.38,19.1,37.23,20.87,64.45,54.92,77.14,94.4,2.19-.38,4.41-.58,6.62-.58,6.63,0,15.89,1.72,24.76,9.18Z"/>
        <path class="cls-23" d="M714.04,519.6c-2.99-9.33-7.63-18.84-14.17-29.26-3.87-6.14-11.97-8.01-18.14-4.14-6.15,3.86-8.01,11.98-4.14,18.14,4.05,6.45,7.14,12.29,9.41,17.87,8.93.38,16.98,3.35,23.19,8.54.72-3.87,2.02-7.66,3.86-11.13Z"/>
        <path class="cls-23" d="M655.4,534.72c.08-.1.17-.19.25-.29-4.7-37.16-36.51-66-74.93-66-41.64,0-75.53,33.89-75.53,75.53,0,6.78,5.5,12.28,12.28,12.28s12.28-5.5,12.28-12.28c0-28.11,22.86-50.97,50.97-50.97,23.81,0,43.85,16.41,49.42,38.5,5.7,5.72,12.04,12.17,18.56,18.86.87-5.52,2.95-10.94,6.71-15.64Z"/>
        <path class="cls-23" d="M604.62,804.35l-1.12-.14c-1.86-.21-8.35-1.17-15-4.57-4.13,14.2-8.12,25.8-10.78,32.47-2.52,6.29.55,13.44,6.84,15.95,1.49.6,3.03.88,4.56.88,4.87,0,9.48-2.92,11.4-7.72,3.35-8.39,7.81-21.46,12.25-36.98-2.57.04-4.93.07-7.02.1l-1.13.02Z"/>
        <path class="cls-23" d="M629.14,722.05c1.09-11.86,1.38-23.24.53-33.48-.56-6.76-6.38-11.72-13.26-11.23-6.76.57-11.77,6.49-11.22,13.25.94,11.32.28,24.32-1.38,37.82,6.7-2.84,14.88-5.01,24.91-6.3.14-.02.28-.04.42-.05Z"/>
        <path class="cls-23" d="M647.57,816.93c-4.92,5.99-4.07,14.82,1.92,19.75,2.61,2.15,5.77,3.19,8.91,3.19,4.05,0,8.07-1.74,10.84-5.11,10.41-12.65,18.99-23.07,26.03-31.72-12.33.19-24.87.38-36.73.55-3.58,4.36-7.26,8.83-10.97,13.34Z"/>
        <path class="cls-23" d="M594.07,607.48s0,.01,0,.02c-2.88,22.19,1.36,31.68,3.32,34.73,2.43,3.79,6.72,6.03,11,6.03,2.16,0,4.32-.57,6.24-1.8,4.68-3,6.83-8.31,5.42-13.28-7.69-7.6-15.24-15.07-22.32-22.08-1.24-1.22-2.46-2.43-3.66-3.63Z"/>
        <path class="cls-23" d="M835.39,489.25c-2.46-2.37-5.31-4.25-8.46-5.63-4.21-1.85-8.97-2.81-14.13-2.81s-10.94.99-16.48,3.08c-5,1.88-9.68,4.65-13.09,8.43-5,5.55-8.31,11.65-9.87,17.93-.3-.27-.6-.51-.91-.76-8.87-7.45-18.13-9.18-24.76-9.18-2.2,0-4.42.2-6.62.58-7.31,1.26-14.36,4.52-19.7,9.26-3,2.67-5.45,5.9-7.33,9.46-1.84,3.48-3.14,7.26-3.86,11.13-6.2-5.18-14.25-8.15-23.19-8.54-.66-.03-1.32-.05-1.99-.05-12.11,0-23.04,4.58-29.36,12.28-.08.1-.17.19-.25.29-3.75,4.7-5.83,10.11-6.71,15.64-6.52-6.69-12.85-13.14-18.56-18.86-8.76-8.79-16.04-15.88-20.21-19.5-11.56-10.06-22.7-12.17-30.01-12.17-14.83,0-26.02,8.1-31.08,15.02-10.04,13.68-10.12,38.52,5.76,53.67,2.08,1.98,18.34,18.06,39.47,38.97,1.21,1.19,2.43,2.4,3.66,3.63,7.09,7.01,14.63,14.48,22.32,22.08,33.75,33.38,70.21,69.39,82.21,80.97-6.31.82-17.61,1.94-27.12,2.89-14.51,1.44-31.28,3.11-46.01,5.01-.14.02-.28.04-.42.05-10.03,1.3-18.21,3.47-24.91,6.3-20.11,8.51-26.97,23.01-30.92,37.94-2.18,8.22-.89,16.42,3.65,23.08,3.23,4.75,7.63,7.99,11.96,10.21,6.65,3.4,13.14,4.36,15,4.57l1.12.14,1.13-.02c2.09-.03,4.45-.06,7.02-.1,11.67-.16,27.94-.39,45.77-.65,11.85-.17,24.39-.36,36.73-.55,23.62-.36,46.47-.74,62.29-1.07,29.96-20.5,24.52-18.78,24.52-18.78l-5.85.8c-2.56.23-32.55.76-66.7,1.29-11.97.19-24.45.37-36.44.55-22.44.33-43.16.62-55.59.79-7.51.1-11.99.17-11.99.17,0,0-7.42-.86-12.19-4.79-2.93-2.4-4.86-5.96-3.48-11.17,1.89-7.11,4.16-14.13,10.41-19.84,5.3-4.84,13.47-8.72,26.7-10.9,1.3-.21,2.63-.42,4.03-.6,32.46-4.2,75.28-7.28,80.6-9.24,5.32-1.96,25.19-7.28,3.64-27.99-12.49-12.01-58.41-57.4-95.96-94.55-6.15-6.09-12.08-11.95-17.6-17.41-18.9-18.7-33.01-32.65-34.95-34.5-10.17-9.7-8.07-24.67-3.73-30.6,3.59-4.9,18.28-14.93,35.45,0,5.73,4.98,17.9,17.11,31.73,31.23,5.67,5.79,11.61,11.91,17.51,18.01,22.82,23.61,44.86,46.9,47.04,49.27,4.11,4.48,11.58,4.45,13.58,3.82,2-.63,5.8-8.01,1.16-15.38-4.64-7.38-37.77-38.7-39.27-40.17-2.8-2.75-7.73-17.95-1.05-26.35,3.85-4.84,14.02-7.4,22.55-5.11,3.31.89,6.37,2.51,8.72,5.02,2.57,2.74,7.01,7.41,12,12.61,11.33,11.81,25.46,26.39,26.76,27.41,3.79,2.99,11.27,2.99,14.96-.07,3.37-2.79,2.81-11.27-.69-14.9s-22.17-21.74-23.79-23.65c-4.39-5.17-3.41-17.65,3.41-23.72,2.6-2.31,7.2-4.75,12.54-5.29,5.78-.58,12.42,1.08,18.34,7.59,4.44,4.88,8.94,8.58,12.64,11.88.82.73,1.62,1.45,2.35,2.15,7.12,6.83,14.2,6.62,16.64,3.7,2.49-2.97,1.81-8.06-1.83-13.12-5.89-8.19-5.26-17.46,2.53-26.1.84-.93,2.21-1.88,3.9-2.72,6.34-3.18,17.34-4.97,23.1.56,2.19,2.1,5.1,5.01,8.48,8.45,20.11,20.48,56.93,59.96,58.13,62.36.3.59,1.36,3.18,2.76,6.63,1.09-9.16,1.67-18.46,1.96-27.85-18.88-21.1-55.51-58.71-59.19-62.24Z"/>
      </g>
      <path class="cls-21" d="M823.25,501.9c-7.29-7-22.99-2.26-26.99,2.17-7.8,8.64-8.43,17.91-2.53,26.1,3.64,5.06,4.32,10.14,1.83,13.12-2.45,2.92-9.52,3.14-16.64-3.7-4.04-3.87-9.57-8.08-14.99-14.04-11.39-12.53-25.47-7.12-30.88-2.31-4.26,3.79-6.24,10.09-6.06,15.54.11,3.27,1,6.24,2.65,8.18,1.62,1.91,20.29,20.01,23.79,23.65,3.5,3.64,4.06,12.11.69,14.9-3.69,3.06-11.17,3.06-14.96.07-1.87-1.47-30.36-31.06-38.76-40.02-8.4-8.96-25.92-6.63-31.27.09-6.69,8.4-1.76,23.6,1.05,26.35,1.5,1.47,34.64,32.79,39.27,40.17,4.64,7.38.84,14.75-1.16,15.38-2,.63-9.48.66-13.58-3.82-4.1-4.48-79.11-83.58-96.27-98.51-17.17-14.93-31.86-4.9-35.45,0-4.34,5.92-6.44,20.9,3.73,30.6,5.95,5.67,126.96,125.75,148.51,146.46,21.55,20.71,1.68,26.03-3.64,27.99-5.32,1.96-48.14,5.04-80.6,9.24-32.46,4.2-37.5,17.63-41.14,31.34-3.64,13.71,15.67,15.95,15.67,15.95,0,0,164.56-2.24,170.72-2.8l5.85-.8c59.97-49.91,100.86-121.77,110.8-203.21-1.55-3.85-2.71-6.64-3.02-7.28-1.4-2.8-51.4-56.2-66.61-70.8Z"/>
    </g>
  </g>
  <g>
    <path d="M1125.77,405.49c0-135.24,102.41-226.49,233.71-226.49,108.98,0,165.43,59.74,194.32,117.51l-97.16,45.95c-14.44-34.79-51.86-63.68-97.16-63.68-68.27,0-118.82,55.14-118.82,126.7s50.55,126.7,118.82,126.7c45.3,0,82.72-28.89,97.16-63.68l97.16,45.95c-28.23,56.46-85.34,117.51-194.32,117.51-131.3,0-233.71-91.91-233.71-226.49Z"/>
    <path d="M1815.08,624.1v-184.47c0-38.73-20.35-51.21-52.52-51.21-29.54,0-49.24,16.41-61.05,30.85v204.82h-101.1V186.22h101.1v159.53c19.04-22.32,56.46-46.61,109.63-46.61,72.21,0,105.04,40.7,105.04,99.13v225.83h-101.1Z"/>
    <path d="M2137.41,299.14c93.88,0,162.15,68.93,162.15,176.6v21.66h-225.83c5.91,29.54,33.48,56.46,80.75,56.46,28.23,0,59.74-11.16,77.47-26.92l42.67,63.02c-31.51,28.23-84.03,42.02-132.61,42.02-97.81,0-173.31-63.68-173.31-166.75,0-91.91,69.59-166.09,168.72-166.09ZM2072.42,431.75h130.64c-2.63-22.32-19.04-54.49-65.65-54.49-43.98,0-61.05,31.51-64.99,54.49Z"/>
    <path d="M2501.76,299.14c68.27,0,110.95,30.2,129.98,58.43l-65.65,61.05c-12.48-18.38-32.82-30.2-59.74-30.2-42.02,0-74.18,28.89-74.18,76.81s32.17,77.47,74.18,77.47c26.92,0,47.27-13.13,59.74-30.85l65.65,61.71c-19.04,27.57-61.71,58.43-129.98,58.43-99.13,0-173.31-66.96-173.31-166.75s74.18-166.09,173.31-166.09Z"/>
    <path d="M2878.59,624.1l-69.59-112.26-30.2,36.11v76.15h-101.1V186.22h101.1v247.5l96.5-126.7h122.11l-116.85,144.43,122.76,172.66h-124.73Z"/>
    <path class="cls-44" d="M3791.11,179c133.92,0,233.71,93.22,233.71,226.49s-99.79,226.49-233.71,226.49-234.36-93.22-234.36-226.49,100.44-226.49,234.36-226.49ZM3791.11,278.79c-72.87,0-119.48,55.14-119.48,126.7s46.61,126.7,119.48,126.7,118.82-55.8,118.82-126.7-46.61-126.7-118.82-126.7Z"/>
    <polygon class="cls-43" points="3503.27 284.69 3503.27 186.22 3220.97 186.22 3220.97 284.69 3304.65 284.69 3304.65 525.63 3220.97 525.63 3220.97 624.1 3304.65 624.1 3417.56 624.1 3503.27 624.1 3503.27 525.63 3417.56 525.63 3417.56 284.69 3503.27 284.69"/>
  </g>
  <g>
    <path class="cls-74" d="M1141.65,799.14c0-59.89,44.11-100.79,99.33-100.79,35.35,0,59.31,16.65,74.79,38.56l-20.45,11.39c-11.1-16.36-31.26-28.34-54.34-28.34-41.78,0-74.21,32.72-74.21,79.17s32.43,79.18,74.21,79.18c23.08,0,43.24-11.69,54.34-28.34l20.74,11.39c-16.36,22.2-39.73,38.56-75.08,38.56-55.22,0-99.33-40.9-99.33-100.79Z"/>
    <path class="cls-74" d="M1347.03,825.72c0-40.9,26.88-73.92,69.82-73.92s69.83,33.01,69.83,73.92-26.88,74.21-69.83,74.21-69.82-33.31-69.82-74.21ZM1463.6,825.72c0-28.63-16.65-54.34-46.75-54.34s-47.03,25.71-47.03,54.34,16.94,54.63,47.03,54.63,46.75-25.71,46.75-54.63Z"/>
    <path class="cls-74" d="M1626.6,896.42v-92.32c0-24.83-12.56-32.72-31.55-32.72-17.24,0-33.6,10.52-41.78,21.91v103.13h-21.91v-141.11h21.91v20.45c9.93-11.69,29.22-23.96,50.25-23.96,29.51,0,44.99,14.9,44.99,45.58v99.04h-21.91Z"/>
    <path class="cls-74" d="M1705.77,866.92v-92.32h-23.37v-19.28h23.37v-38.56h21.91v38.56h28.63v19.28h-28.63v87.65c0,10.52,4.67,18.11,14.32,18.11,6.14,0,11.98-2.63,14.9-5.84l6.43,16.36c-5.55,5.26-13.44,9.06-26.29,9.06-20.74,0-31.26-11.98-31.26-33.01Z"/>
    <path class="cls-74" d="M1796.33,896.42v-141.11h21.91v22.79c11.4-14.9,27.75-25.71,47.04-25.71v22.5c-2.63-.59-5.26-.88-8.76-.88-13.44,0-31.85,11.1-38.27,22.5v99.92h-21.91Z"/>
    <path class="cls-74" d="M1893.61,825.72c0-40.9,26.88-73.92,69.82-73.92s69.83,33.01,69.83,73.92-26.88,74.21-69.83,74.21-69.82-33.31-69.82-74.21ZM2010.18,825.72c0-28.63-16.65-54.34-46.75-54.34s-47.03,25.71-47.03,54.34,16.94,54.63,47.03,54.63,46.75-25.71,46.75-54.63Z"/>
    <path class="cls-74" d="M2077.95,896.42v-194.87h21.91v194.87h-21.91Z"/>
    <path class="cls-74" d="M2339.42,896.42v-21.03c-10.52,14.32-27.76,24.54-47.62,24.54-36.81,0-62.81-28.05-62.81-73.92s25.71-74.21,62.81-74.21c18.99,0,36.23,9.35,47.62,24.83v-75.09h21.91v194.87h-21.91ZM2339.42,794.17c-7.89-12.27-24.83-22.79-42.36-22.79-28.34,0-45.28,23.37-45.28,54.63s16.94,54.34,45.28,54.34c17.53,0,34.48-9.93,42.36-22.2v-63.98Z"/>
    <path class="cls-74" d="M2475.55,751.81c42.66,0,67.78,33.31,67.78,75.67v5.55h-114.23c1.75,26.59,20.45,48.79,50.83,48.79,16.07,0,32.43-6.43,43.53-17.82l10.52,14.32c-14.02,14.02-33.01,21.62-56.09,21.62-41.78,0-71.87-30.09-71.87-74.21,0-40.9,29.22-73.92,69.53-73.92ZM2429.1,816.96h92.61c-.29-21.04-14.32-47.04-46.45-47.04-30.09,0-44.99,25.42-46.16,47.04Z"/>
    <path class="cls-74" d="M2760.38,896.42v-16.07c-11.69,12.85-27.75,19.57-46.74,19.57-23.96,0-49.38-16.07-49.38-46.74s25.42-46.45,49.38-46.45c19.28,0,35.35,6.14,46.74,19.28v-25.42c0-18.99-15.19-29.8-35.64-29.8-16.94,0-30.68,6.14-43.24,19.57l-10.23-15.19c15.19-15.78,33.31-23.37,56.39-23.37,29.8,0,54.64,13.44,54.64,47.62v96.99h-21.91ZM2760.38,840.04c-8.47-11.69-23.37-17.53-38.86-17.53-20.45,0-34.76,12.85-34.76,30.97s14.31,30.68,34.76,30.68c15.49,0,30.39-5.84,38.86-17.53v-26.59Z"/>
    <path class="cls-74" d="M2834.29,861.95c9.35,10.81,27.17,20.16,46.45,20.16,21.62,0,33.31-9.64,33.31-23.37,0-15.48-17.24-20.45-36.23-25.13-23.96-5.55-51.13-11.98-51.13-41.19,0-21.91,18.99-40.61,52.59-40.61,23.96,0,40.9,9.06,52.3,20.45l-10.23,15.19c-8.47-10.23-23.96-17.82-42.07-17.82-19.28,0-31.26,8.76-31.26,21.33,0,13.73,16.07,18.11,34.47,22.5,24.54,5.55,52.88,12.56,52.88,43.82,0,23.66-18.99,42.65-55.51,42.65-23.08,0-42.65-7.01-56.97-22.2l11.39-15.78Z"/>
    <path class="cls-74" d="M2976.27,716.75c0-8.18,6.72-14.61,14.61-14.61s14.9,6.43,14.9,14.61-6.72,14.9-14.9,14.9-14.61-6.72-14.61-14.9ZM2980.07,896.42v-141.11h21.91v141.11h-21.91Z"/>
    <path class="cls-74" d="M3053.98,861.95c9.35,10.81,27.17,20.16,46.45,20.16,21.62,0,33.31-9.64,33.31-23.37,0-15.48-17.24-20.45-36.23-25.13-23.96-5.55-51.13-11.98-51.13-41.19,0-21.91,18.99-40.61,52.59-40.61,23.96,0,40.9,9.06,52.3,20.45l-10.23,15.19c-8.47-10.23-23.96-17.82-42.07-17.82-19.28,0-31.26,8.76-31.26,21.33,0,13.73,16.07,18.11,34.47,22.5,24.54,5.55,52.88,12.56,52.88,43.82,0,23.66-18.99,42.65-55.51,42.65-23.08,0-42.65-7.01-56.97-22.2l11.39-15.78Z"/>
    <path class="cls-74" d="M3204.14,866.92v-92.32h-23.37v-19.28h23.37v-38.56h21.91v38.56h28.63v19.28h-28.63v87.65c0,10.52,4.67,18.11,14.32,18.11,6.14,0,11.98-2.63,14.9-5.84l6.43,16.36c-5.55,5.26-13.44,9.06-26.29,9.06-20.74,0-31.26-11.98-31.26-33.01Z"/>
    <path class="cls-74" d="M3356.05,751.81c42.66,0,67.78,33.31,67.78,75.67v5.55h-114.23c1.75,26.59,20.45,48.79,50.83,48.79,16.07,0,32.43-6.43,43.53-17.82l10.52,14.32c-14.02,14.02-33.01,21.62-56.09,21.62-41.78,0-71.87-30.09-71.87-74.21,0-40.9,29.22-73.92,69.53-73.92ZM3309.6,816.96h92.61c-.29-21.04-14.32-47.04-46.45-47.04-30.09,0-44.99,25.42-46.16,47.04Z"/>
    <path class="cls-74" d="M3563.47,896.42v-92.32c0-24.83-12.56-32.72-31.55-32.72-17.24,0-33.6,10.52-41.78,21.91v103.13h-21.91v-141.11h21.91v20.45c9.93-11.69,29.22-23.96,50.25-23.96,29.51,0,44.99,14.9,44.99,45.58v99.04h-21.91Z"/>
    <path class="cls-74" d="M3700.48,751.81c25.71,0,40.9,10.52,51.71,24.54l-14.61,13.44c-9.35-12.85-21.33-18.4-35.93-18.4-30.09,0-48.79,23.08-48.79,54.34s18.7,54.63,48.79,54.63c14.61,0,26.59-5.84,35.93-18.41l14.61,13.44c-10.81,14.02-26,24.54-51.71,24.54-42.07,0-70.41-32.14-70.41-74.21s28.34-73.92,70.41-73.92Z"/>
    <path class="cls-74" d="M3788.12,716.75c0-8.18,6.72-14.61,14.61-14.61s14.9,6.43,14.9,14.61-6.72,14.9-14.9,14.9-14.61-6.72-14.61-14.9ZM3791.91,896.42v-141.11h21.91v141.11h-21.91Z"/>
    <path class="cls-74" d="M3954.93,896.42v-16.07c-11.69,12.85-27.75,19.57-46.74,19.57-23.96,0-49.38-16.07-49.38-46.74s25.42-46.45,49.38-46.45c19.28,0,35.35,6.14,46.74,19.28v-25.42c0-18.99-15.19-29.8-35.64-29.8-16.94,0-30.68,6.14-43.24,19.57l-10.23-15.19c15.19-15.78,33.31-23.37,56.39-23.37,29.8,0,54.64,13.44,54.64,47.62v96.99h-21.91ZM3954.93,840.04c-8.47-11.69-23.37-17.53-38.86-17.53-20.45,0-34.76,12.85-34.76,30.97s14.31,30.68,34.76,30.68c15.49,0,30.39-5.84,38.86-17.53v-26.59Z"/>
  </g>
</svg>